# xmcd
#
# Track frame offsets: 
#        150
#        29370
#        72707
#        98335
#        127450
#        160817
#
# Disc length: 2455 seconds
#
# Revision: 4
# Processed by: cddbd v1.5.2PL0 Copyright (c) Steve Scherf et al.
# Submitted via: ExactAudioCopy v1.1
#
DISCID=51099506
DTITLE=Cuby and Blizzards - Cuby and Blizzards Live
DYEAR=1968
DGENRE=Blues
TTITLE0=Sugar Mama
TTITLE1=Sweet Little Angel
TTITLE2=No Way Out
TTITLE3=Don´t Love You Twice
TTITLE4=Five Long Years
TTITLE5=Dust My Blues
EXTD=YEAR: 1968
EXTT0=
EXTT1=
EXTT2=
EXTT3=
EXTT4=
EXTT5=
PLAYORDER=
